# xmcd
#
# Track frame offsets:
#        150
#        17738
#        28231
#        41747
#        57557
#        70811
#        87413
#        88828
#        100705
#        114254
#        125686
#        139042
#        154382
#        163143
#        175160
#        189795
#        205240
#        222761
#        233995
#        250196
#        264114
#        276254
#        288557
#        299679
#        313459
#
# Disc length: 4352 seconds
#
# Revision: 0
# Processed by: cddbd v1.5.1PL0 Copyright (c) Steve Scherf et al.
# Submitted via: ExactAudioCopy v0.95a5
#
DISCID=8010fe19
DTITLE=Various Artist - Fuckin Eh 2
DYEAR=1900
DGENRE=
TTITLE0=Downway - Forever Is The End
TTITLE1=Racer Ten - Never Change
TTITLE2=Mico - This Great Achievement
TTITLE3=Subb - Out Of The Line
TTITLE4=Choke - Every Word
TTITLE5=Hot Little Rocket - Short Work
TTITLE6=Yours Truly - First Steps
TTITLE7=Propagandhi - Today's Empires, Tomorrow's Ashes
TTITLE8=Complete - Get Away
TTITLE9=Amazing Larrys - I'm Sorry
TTITLE10=Sixty Stories - Quit My Job
TTITLE11=Belvedere - Home Ice Advantage
TTITLE12=District 7 - Beyond The Shadows
TTITLE13=Tripshot - Take Two
TTITLE14=Supersift - There Ain't No Rhyme, There Ain't No Reason
TTITLE15=Closet Monster - Smells Like Revolutionary
TTITLE16=Deville - Charles
TTITLE17=Namesake 4:20 - What About That Guy
TTITLE18=Selfmademan - Steel Toed Amputee
TTITLE19=Planet Smashers - Keep On Coming
TTITLE20=Midpoint - on Stop Lying You
TTITLE21=Room Without A View - Brand New Day
TTITLE22=Fifty Nutz - From Here On Then
TTITLE23=Blinded - Yesterday
TTITLE24=Twenty 2 - Angelina
EXTD=
EXTT0=
EXTT1=
EXTT2=
EXTT3=
EXTT4=
EXTT5=
EXTT6=
EXTT7=
EXTT8=
EXTT9=
EXTT10=
EXTT11=
EXTT12=
EXTT13=
EXTT14=
EXTT15=
EXTT16=
EXTT17=
EXTT18=
EXTT19=
EXTT20=
EXTT21=
EXTT22=
EXTT23=
EXTT24=
PLAYORDER=
